**ABCDEFGHIJKLMNOPQRSTUVWXYZabcdefghijklmnopqrstuvwxyz**************************
**PARASOLID !"#$%&'()*+,-./:;<=>?@[\]^_`{|}~0123456789**************************
**PART1;
MC=unknown;
MC_MODEL=unknown;
MC_ID=unknown;
OS=unknown;
OS_RELEASE=unknown;
FRU=sdl_parasolid_customer_support;
APPL=parasolid_acceptance_tests;
SITE=unknown;
USER=unknown;
FORMAT=text;
GUISE=transmit;
KEY=/users/fnewberry/basis_reduction/2_gas_turbine/GT_simulation/meshing/2d_cylinder_40_low_nat.x_t;
FILE=/users/fnewberry/basis_reduction/2_gas_turbine/GT_simulation/meshing/2d_cylinder_40_low_nat.x_t;
DATE=unknown;
**PART2;
SCH=SCH_2800180_28002;
USFLD_SIZE=1;
**PART3;
**END_OF_HEADER*****************************************************************
T51 : TRANSMIT FILE created by modeller version 280018023 SCH_2800180_28002_1300
6200 1 12 30 CCCCCCCCCCCCCDI5 owner1040 0 CCCCCCCCCA13 boundary_mesh1006 0 A16 i
ndex_map_offset0 0 1 dA9 index_map82 0 A17 node_id_index_map82 0 A20 schema_embe
dding_map82 0 A5 child12 0 A14 lowest_node_id0 0 1 dZ1 200 0 2 0 0 0 0 1e3 1e-8
 0 3 0 1 0 1 1 4 5 6 7 8 9 10 0 0 0 0 0 0 0 0 70 11 CI9 list_type0 0 1 uI10 notr
ansmit0 0 1 lCCCDCCDI12 finger_index0 0 1 dI12 finger_block1012 0 CZ2 0 4 T1 0 0
 2 20 1 11 11 0 13 255 4 128 0 1 0 12 0 0 13 0 0 51 255 5 123 0 14 15 0 0 -0 0 .
001 0 0 -1 .05 -1 0 0 0 30 255 6 127 0 9 16 0 0 +1 -.1 .001 0 0 -1 0 29 255 7 99
 0 17 18 0 -.2 -.1 0 0 19 8 CCCCCCCA5 owner12 0 Z8 40 0 1 13 0 19 V0 0 16 255 9
 106 0 ?20 0 21 6 0 0 1 0 18 255 10 35 0 22 0 23 24 ?1 0 17 255 22 0 25 26 27 10
 28 29 0 30 -0 18 23 32 0 31 10 32 33 ?1 0 29 24 37 0 10 33 34 -.2 -.1 .001 0 29
 33 34 0 23 35 24 -.2 .1 .001 0 29 34 102 0 36 24 37 1 -.1 0 0 18 36 92 0 38 39
 0 34 ?1 0 29 37 101 0 39 34 18 1 .1 0 0 18 39 91 0 40 41 36 37 ?1 0 29 18 100 0
 41 37 7 -.2 .1 0 0 18 41 90 0 42 17 39 18 ?1 0 17 42 0 25 27 26 41 31 43 0 44 +
0 18 17 89 0 28 45 41 7 ?1 0 17 28 0 46 47 30 17 22 29 0 48 +0 18 45 26 0 49 32
 17 50 ?1 0 17 49 0 51 20 52 45 53 54 0 55 -0 18 32 29 0 53 23 45 35 ?1 0 29 50
 28 0 45 0 35 1 -.1 .001 0 29 35 31 0 32 50 33 1 .1 .001 0 17 53 0 56 57 55 32 4
9 54 0 52 +0 15 255 56 5 0 55 58 0 0 17 57 0 56 59 53 23 60 61 0 26 -0 17 55 0 5
6 53 59 45 30 62 0 63 +0 16 54 14 0 ?53 61 62 64 0 0 1 0 17 52 0 51 49 65 32 40
 21 0 60 -0 15 51 111 0 65 66 0 0 17 65 0 51 52 20 39 38 67 0 68 +0 17 40 0 69 4
4 60 39 52 21 0 65 +0 16 21 105 0 ?40 9 43 16 0 0 1 0 17 60 0 69 40 31 32 57 61
 0 0 +0 15 69 109 0 44 70 0 0 17 31 0 69 60 44 23 42 43 0 57 -0 16 61 18 0 ?60 7
1 54 72 0 0 1 0 16 71 22 0 ?26 29 61 73 0 0 1 0 30 72 19 0 61 64 73 0 +0 .1 .001
 1 0 0 0 30 64 15 0 54 74 72 0 +1 0 .001 0 1 0 0 30 73 23 0 71 72 75 0 +-.2 0 .0
01 0 1 0 0 31 255 75 98 0 76 73 77 0 +0 0 0 0 0 1 1 0 0 .05 0 16 76 84 0 ?78 79
 0 75 0 0 1 0 30 77 97 0 79 75 80 0 +0 -.1 0 1 0 0 0 16 79 79 0 ?47 67 76 77 0 0
 1 0 30 80 96 0 67 77 81 0 +1 0 0 0 1 0 0 16 67 74 0 ?65 82 79 80 0 0 1 0 30 81
 95 0 82 80 83 0 +0 .1 0 1 0 0 0 16 82 69 0 ?68 84 67 81 0 0 1 0 30 83 94 0 84 8
1 85 0 +-.2 0 0 0 1 0 0 16 84 64 0 ?86 87 82 83 0 0 1 0 30 85 124 0 29 83 88 0 +
-.2 -.1 .001 0 0 -1 0 16 29 103 0 ?28 43 71 85 0 0 1 0 30 88 125 0 43 85 16 0 +-
.2 .1 .001 0 0 -1 0 16 43 104 0 ?42 21 29 88 0 0 1 0 30 16 126 0 21 88 6 0 +1 .1
 .001 0 0 -1 0 17 86 0 89 68 48 41 27 84 0 0 +0 16 87 6 0 ?90 62 84 91 0 0 1 0 1
7 90 0 92 90 90 0 93 87 0 0 +0 16 62 10 0 ?55 54 87 74 0 0 1 0 31 91 7 0 87 0 74
 0 +0 0 .001 0 0 1 1 0 0 .05 0 30 74 11 0 62 91 64 0 +0 -.1 .001 1 0 0 0 15 92 1
15 0 90 14 94 0 17 93 0 95 93 93 0 90 87 0 0 -0 15 95 4 0 93 58 56 0 14 255 58 1
 96 ?97 98 95 4 99 +0 0 97 98 19 0 81 255 1 96 194 100 58 101 0 0 102 103 0 14 9
7 60 102 ?0 58 104 4 105 -0 0 0 58 19 0 14 98 108 106 ?58 14 25 4 107 +0 0 58 14
 19 0 50 255 99 2 0 58 0 105 0 +0 0 .001 0 0 1 1 0 0 0 13 19 41 0 0 0 0 0 0 8 12
 0 14 12 114 108 ?66 0 46 4 15 -0 0 66 0 19 0 81 1 108 197 100 12 109 0 106 110
 111 0 14 66 112 110 ?70 12 51 4 112 -0 0 70 12 19 0 15 46 113 0 47 12 0 0 50 15
 122 0 12 112 5 0 +0 -.1 .001 0 1 0 0 0 1 0 50 112 121 0 66 113 15 0 +1 0 .001 -
1 0 0 0 0 1 0 50 113 120 0 70 107 112 0 +0 .1 .001 0 1 0 0 0 1 0 14 70 110 114 ?
14 66 69 4 113 +0 0 14 66 19 0 50 107 119 0 98 105 113 0 +-.2 0 .001 -1 0 0 0 0
 1 0 50 105 93 0 97 99 107 0 +0 0 0 0 0 1 1 0 0 0 81 1 114 199 100 70 115 0 110
 116 117 0 14 14 116 116 ?98 70 92 4 5 +0 0 98 70 19 0 81 1 116 200 100 14 118 0
 114 0 119 0 80 255 1 100 120 121 9000 1 1 1 1 1 1 1 1 0 FFFFTFTFFFFFFF1 0 81 1
 118 174 122 14 0 116 115 123 124 0 82 255 1 119 -538050444 0 80 1 122 0 125 800
1 0 0 0 0 3 5 0 0 0 FFFFTFTFFFFFFF2 0 81 1 115 173 122 70 0 114 126 118 127 0 81
 1 123 175 122 98 0 106 118 101 128 0 83 255 3 124 .792156862745098 .81960784313
7255 .933333333333333 0 81 1 106 196 100 98 123 0 102 108 129 0 81 1 101 176 122
 58 0 96 123 130 131 0 83 3 128 .792156862745098 .819607843137255 .9333333333333
33 0 81 1 130 177 122 97 0 102 101 0 132 0 83 3 131 .792156862745098 .8196078431
37255 .933333333333333 0 81 1 102 195 100 97 130 0 96 106 133 0 83 3 132 .792156
862745098 .819607843137255 .933333333333333 0 82 1 133 -541327244 0 82 1 129 -53
8967948 0 81 1 126 172 122 66 0 110 109 115 134 0 83 3 127 .792156862745098 .819
607843137255 .933333333333333 0 81 1 110 198 100 66 126 0 108 114 135 0 81 1 109
 171 122 12 0 108 0 126 136 0 83 3 134 .792156862745098 .819607843137255 .933333
333333333 0 83 3 136 .792156862745098 .819607843137255 .933333333333333 0 82 1 1
35 -538705804 0 79 255 15 125 SDL/TYSA_COLOUR0 79 14 121 SWEntUnchanged0 82 1 11
7 -538836876 0 17 47 0 46 63 28 36 48 79 0 0 +0 17 63 0 46 30 47 45 20 9 0 0 -0
 17 48 0 89 86 38 17 47 79 0 27 -0 15 89 63 0 48 97 0 0 17 38 0 89 48 68 36 65 6
7 0 20 -0 17 27 0 25 22 42 17 86 84 0 0 -0 15 25 107 0 27 98 0 0 17 68 0 89 38 8
6 39 44 82 0 0 +0 17 20 0 51 65 49 36 63 9 0 47 +0 17 44 0 69 31 40 41 68 82 0 8
6 -0 17 30 0 46 28 63 10 55 62 0 59 -0 17 59 0 56 55 57 10 26 71 0 0 -0 17 26 0
 25 42 22 23 59 71 0 0 +0 82 1 111 -538378124 0 15 104 62 0 78 97 89 0 17 78 0 1
04 78 78 0 137 76 0 0 +0 17 137 0 94 137 137 0 78 76 0 0 -0 15 94 117 0 137 14 0
 0 82 1 103 -547815308 0 19 13 129 0 1 0 8 4 S0 0 74 4 CI16 index_map_offset0 0
 1 dCCZ20 11 2 0 0 116 130 0 0 0 0 0 0 0 0 0 0 0 0 0 0 0 0 0 0 0 1 0 
